# xmcd
#
# Track frame offsets:
#	150
#	15427
#	19350
#	24215
#	28107
#	33097
#	38477
#	44122
#	48065
#	54120
#	59297
#	65340
#	70632
#	78430
#	83582
#	87472
#	91612
#	95480
#	99587
#	104627
#	108590
#	113635
#	118405
#	124685
#	129597
#	135087
#	137857
#	141205
#	144452
#	146600
#	150610
#	154815
#	158780
#	163507
#	168192
#	172072
#	175885
#	180050
#	182412
#	186465
#	191442
#	194342
#	197607
#	202870
#	207817
#	211447
#	214710
#	218762
#	222587
#	225417
#	230375
#	235442
#	239745
#	244625
#	247625
#	252070
#	257080
#	260680
#	264505
#	269457
#	274407
#	277217
#	282510
#	288472
#	293650
#	297705
#	301982
#	306272
#	311135
#	316472
#
# Disc length: 4324 seconds
#
# Revision: 1
# Processed by: cddbd v1.5.1PL0 Copyright (c) Steve Scherf et al.
# Submitted via: CDex 1.50Beta5
#
DISCID=0410e246
DTITLE=オムニバス - SUPER EURO BEST
DYEAR=1900
DGENRE=Unclassifiable
TTITLE0=KING AND QUEEN
TTITLE1=TAKE A LOOK IN MY HEART
TTITLE2=SHOCK ME
TTITLE3=YOU GOT ME GOING CRAZY
TTITLE4=DARK IN THE NIGHT
TTITLE5=WILD REPUTATION
TTITLE6=SUMMERTIME
TTITLE7=FANTASY
TTITLE8=LUCKY LUCKY
TTITLE9=IT'S A MIRACLE
TTITLE10=MINE IS YOUR LOVE
TTITLE11=SEASON
TTITLE12=YOU NEED A LOVER
TTITLE13=ON MY OWN
TTITLE14=FOOLING WITH YOUR HEART
TTITLE15=WITH YOU
TTITLE16=TAKE MY GUM
TTITLE17=PUSH ME BOOM BOOM
TTITLE18=KISS ME KISS ME BABE
TTITLE19=SHAKE ME UP
TTITLE20=WHY NOT
TTITLE21=FEEL ME
TTITLE22=TRY ME
TTITLE23=SEVENTIES
TTITLE24=TORA TORA TORA
TTITLE25=BAD BOY
TTITLE26=ROPPONGI NIGHTS
TTITLE27=MONEY GO!
TTITLE28=EUROBOY
TTITLE29=RELIGHT MY FIRE
TTITLE30=YOU'RE IN DANGER
TTITLE31=TELEPHONE
TTITLE32=BOOMERANG
TTITLE33=LET ME BE YOU BABY
TTITLE34=TOO YOUNG TO FALL IN LOVE
TTITLE35=TOKYO TOKYO
TTITLE36=BOOM BOOM PARA PARA
TTITLE37=HEY HEY BABY
TTITLE38=HEY HEY BABY CRY
TTITLE39=JUNGLE NIGHT
TTITLE40=REMEMBER ME
TTITLE41=HEARTBEAT
TTITLE42=YESTERDAY
TTITLE43=DANCING
TTITLE44=DANCING QUEEN
TTITLE45=ONE NIGH IN ARABIA
TTITLE46=ANNIVERSARY
TTITLE47=MADE IN JAPAN
TTITLE48=SPACE BOY
TTITLE49=BURNING DESIRE
TTITLE50=STAY THE NIGHT
TTITLE51=JEALOUSY
TTITLE52=I WANNA DANCE
TTITLE53=DO YOU WANNA DANC
TTITLE54=POPTEEN
TTITLE55=EASY
TTITLE56=GIVE ME HEART and SOUL
TTITLE57=DREAMING' OF YOU
TTITLE58=GOTCHA!
TTITLE59=PARAPARA PARADISE
TTITLE60=TOGETHER FOREVER
TTITLE61=SHADOWS IN THE NIGHT
TTITLE62=velfarre 2000
TTITLE63=BOOM BOOM FIRE
TTITLE64=MADE　OF　FIRE
TTITLE65=CRAZY　FOR　LOVE
TTITLE66=MICKEY MOUSE MARCH (Eurobeat Version)
TTITLE67=DON'T WANNA LOSE YOU BABY
TTITLE68=BABY GET MY FIRE TONITE
TTITLE69=NIGHT　OF　FIRE
EXTD=
EXTT0=
EXTT1=
EXTT2=
EXTT3=
EXTT4=
EXTT5=
EXTT6=
EXTT7=
EXTT8=
EXTT9=
EXTT10=
EXTT11=
EXTT12=
EXTT13=
EXTT14=
EXTT15=
EXTT16=
EXTT17=
EXTT18=
EXTT19=
EXTT20=
EXTT21=
EXTT22=
EXTT23=
EXTT24=
EXTT25=
EXTT26=
EXTT27=
EXTT28=
EXTT29=
EXTT30=
EXTT31=
EXTT32=
EXTT33=
EXTT34=
EXTT35=
EXTT36=
EXTT37=
EXTT38=
EXTT39=
EXTT40=
EXTT41=
EXTT42=
EXTT43=
EXTT44=
EXTT45=
EXTT46=
EXTT47=
EXTT48=
EXTT49=
EXTT50=
EXTT51=
EXTT52=
EXTT53=
EXTT54=
EXTT55=
EXTT56=
EXTT57=
EXTT58=
EXTT59=
EXTT60=
EXTT61=
EXTT62=
EXTT63=
EXTT64=
EXTT65=
EXTT66=
EXTT67=
EXTT68=
EXTT69=
PLAYORDER=
